<svg width="16" height="16" viewBox="0 0 16 16" fill="none" xmlns="http://www.w3.org/2000/svg">
<path d="M2.64709 3.0293L13.353 3.0293C13.7753 3.0293 14.1177 2.68693 14.1177 2.26459C14.1177 1.84226 13.7753 1.49989 13.353 1.49989L2.64709 1.49989C2.22475 1.49989 1.88238 1.84226 1.88238 2.26459C1.88238 2.68693 2.22475 3.0293 2.64709 3.0293Z" fill="#1E1D5B"/>
<path d="M14.1177 3.79412V2.26471C14.1177 1.84237 13.7753 1.5 13.353 1.5C12.9306 1.5 12.5883 1.84237 12.5883 2.26471V3.79412C12.5883 4.21645 12.9306 4.55882 13.353 4.55882C13.7753 4.55882 14.1177 4.21645 14.1177 3.79412Z" fill="#1E1D5B"/>
<path d="M3.41162 3.79412V2.26471C3.41162 1.84237 3.06925 1.5 2.64692 1.5C2.22458 1.5 1.88221 1.84237 1.88221 2.26471L1.88221 3.79412C1.88221 4.21645 2.22458 4.55882 2.64692 4.55882C3.06925 4.55882 3.41162 4.21645 3.41162 3.79412Z" fill="#1E1D5B"/>
<path d="M4.94146 9.14697C4.82275 9.14697 4.70566 9.11933 4.59948 9.06624C4.49329 9.01315 4.40093 8.93606 4.3297 8.84109C4.26945 8.76075 4.22561 8.66933 4.20068 8.57205C4.17576 8.47477 4.17024 8.37353 4.18444 8.27412C4.19865 8.1747 4.23229 8.07906 4.28345 7.99265C4.33462 7.90624 4.4023 7.83075 4.48264 7.7705L7.54146 5.47638C7.67243 5.38068 7.83043 5.3291 7.99264 5.3291C8.15485 5.3291 8.31285 5.38068 8.44382 5.47638L11.5026 7.63285C11.6675 7.7498 11.7794 7.92727 11.8137 8.12645C11.8481 8.32563 11.8023 8.53033 11.6862 8.69579C11.6282 8.7785 11.5545 8.8489 11.4691 8.90295C11.3838 8.95699 11.2887 8.9936 11.1891 9.01066C11.0896 9.02773 10.9877 9.02491 10.8892 9.00236C10.7908 8.97982 10.6978 8.938 10.6156 8.87932L8.00029 7.03638L5.40029 8.99403C5.26792 9.0933 5.10692 9.14697 4.94146 9.14697Z" fill="#1E1D5B"/>
<path d="M8.00006 14.4996C7.79724 14.4996 7.60274 14.419 7.45933 14.2756C7.31592 14.1322 7.23535 13.9377 7.23535 13.7349V7.61724C7.23535 7.41443 7.31592 7.21993 7.45933 7.07652C7.60274 6.93311 7.79724 6.85254 8.00006 6.85254C8.20287 6.85254 8.39738 6.93311 8.54079 7.07652C8.6842 7.21993 8.76476 7.41443 8.76476 7.61724V13.7349C8.76476 13.9377 8.6842 14.1322 8.54079 14.2756C8.39738 14.419 8.20287 14.4996 8.00006 14.4996Z" fill="#1E1D5B"/>
</svg>
