<svg width="16" height="16" viewBox="0 0 16 16" fill="none" xmlns="http://www.w3.org/2000/svg">
<path d="M7 5H9C9 4.73478 8.89464 4.48043 8.70711 4.29289C8.51957 4.10536 8.26522 4 8 4C7.73478 4 7.48043 4.10536 7.29289 4.29289C7.10536 4.48043 7 4.73478 7 5ZM6 5C6 4.46957 6.21071 3.96086 6.58579 3.58579C6.96086 3.21071 7.46957 3 8 3C8.53043 3 9.03914 3.21071 9.41421 3.58579C9.78929 3.96086 10 4.46957 10 5H12.5C12.6326 5 12.7598 5.05268 12.8536 5.14645C12.9473 5.24021 13 5.36739 13 5.5C13 5.63261 12.9473 5.75979 12.8536 5.85355C12.7598 5.94732 12.6326 6 12.5 6H12.059L11.616 11.17C11.5734 11.6692 11.345 12.1343 10.9759 12.4732C10.6069 12.8121 10.124 13.0001 9.623 13H6.377C5.87595 13.0001 5.39314 12.8121 5.02407 12.4732C4.65501 12.1343 4.42659 11.6692 4.384 11.17L3.941 6H3.5C3.36739 6 3.24021 5.94732 3.14645 5.85355C3.05268 5.75979 3 5.63261 3 5.5C3 5.36739 3.05268 5.24021 3.14645 5.14645C3.24021 5.05268 3.36739 5 3.5 5H6ZM9.5 8C9.5 7.86739 9.44732 7.74021 9.35355 7.64645C9.25979 7.55268 9.13261 7.5 9 7.5C8.86739 7.5 8.74021 7.55268 8.64645 7.64645C8.55268 7.74021 8.5 7.86739 8.5 8V10C8.5 10.1326 8.55268 10.2598 8.64645 10.3536C8.74021 10.4473 8.86739 10.5 9 10.5C9.13261 10.5 9.25979 10.4473 9.35355 10.3536C9.44732 10.2598 9.5 10.1326 9.5 10V8ZM7 7.5C6.86739 7.5 6.74021 7.55268 6.64645 7.64645C6.55268 7.74021 6.5 7.86739 6.5 8V10C6.5 10.1326 6.55268 10.2598 6.64645 10.3536C6.74021 10.4473 6.86739 10.5 7 10.5C7.13261 10.5 7.25979 10.4473 7.35355 10.3536C7.44732 10.2598 7.5 10.1326 7.5 10V8C7.5 7.86739 7.44732 7.74021 7.35355 7.64645C7.25979 7.55268 7.13261 7.5 7 7.5Z" fill="#1E1D5B"/>
</svg>
