<svg width="188" height="35" viewBox="0 0 188 35" fill="none" xmlns="http://www.w3.org/2000/svg">
<path d="M68.0474 15.3638H62.079V10.6112C62.079 10.12 62.0053 9.81294 61.8579 9.69014C61.7105 9.54277 61.4035 9.46908 60.9369 9.46908H54.9684C54.5018 9.46908 54.1948 9.54277 54.0474 9.69014C53.9 9.81294 53.8263 10.12 53.8263 10.6112V26.8954C53.8263 27.3866 53.9 27.7059 54.0474 27.8533C54.1948 27.9761 54.5018 28.0375 54.9684 28.0375H60.9369C61.4035 28.0375 61.7105 27.9761 61.8579 27.8533C62.0053 27.7059 62.079 27.3866 62.079 26.8954V22.1796H68.0474V27.3007C68.0474 29.241 67.0772 30.2112 65.1369 30.2112H50.7684C48.8281 30.2112 47.8579 29.241 47.8579 27.3007V10.2059C47.8579 8.26557 48.8281 7.2954 50.7684 7.2954H65.1369C67.0772 7.2954 68.0474 8.26557 68.0474 10.2059V15.3638Z" fill="#C64432"/>
<path d="M78.6507 30.2112H72.9402V12.3428H78.6507V30.2112ZM72.8297 9.35856V5.52698H78.7612V9.35856H72.8297Z" fill="#C64432"/>
<path d="M92.1148 12.3428H100.22C102.16 12.3428 103.131 13.3129 103.131 15.2533V30.2112H97.42V15.6586C97.42 15.1919 97.3464 14.8849 97.199 14.7375C97.0516 14.5901 96.7446 14.5165 96.2779 14.5165H91.3411C90.4814 14.5165 90.0516 14.9094 90.0516 15.6954V16.8007H90.0148V30.2112H84.3043V12.3428H90.0148V13.5586C90.3095 12.748 91.0095 12.3428 92.1148 12.3428Z" fill="#C64432"/>
<path d="M113.718 19.9691H121.676V15.6586C121.676 15.1919 121.602 14.8849 121.455 14.7375C121.332 14.5901 121.025 14.5165 120.534 14.5165H114.86C114.369 14.5165 114.049 14.5901 113.902 14.7375C113.779 14.8849 113.718 15.1919 113.718 15.6586V19.9691ZM110.955 12.3428H124.291C126.232 12.3428 127.202 13.3129 127.202 15.2533V22.1428H113.718V26.8954C113.718 27.3866 113.779 27.7059 113.902 27.8533C114.049 27.9761 114.369 28.0375 114.86 28.0375H120.46C120.951 28.0375 121.258 27.9761 121.381 27.8533C121.528 27.7059 121.602 27.3866 121.602 26.8954V24.7217H127.128V27.3007C127.128 29.241 126.158 30.2112 124.218 30.2112H110.955C109.014 30.2112 108.044 29.241 108.044 27.3007V15.2533C108.044 13.3129 109.014 12.3428 110.955 12.3428Z" fill="#C64432"/>
<path d="M145.494 5.56382H151.167V30.2112H145.494V14.5165H139.341V30.2112H133.63V14.5165H130.978V12.3428H133.63V8.47435C133.63 6.53399 134.601 5.56382 136.541 5.56382H143.725V7.81119H140.483C140.016 7.81119 139.709 7.88487 139.562 8.03224C139.415 8.17961 139.341 8.48663 139.341 8.95329V12.3428H145.494V5.56382Z" fill="#C64432"/>
<path d="M162.661 30.2112H156.95V12.3428H162.661V30.2112ZM156.84 9.35856V5.52698H162.771V9.35856H156.84Z" fill="#C64432"/>
<path d="M179.883 20.5954L187.878 30.2112H181.246L176.162 24.0954L170.709 30.2112H166.362L174.062 21.7007L166.362 12.3428H172.993L177.746 18.2375L182.867 12.3428H187.288L179.883 20.5954Z" fill="#C64432"/>
<rect x="3.68408" width="29.4737" height="4.60526" fill="#C64432"/>
<rect x="3.68408" y="30.3943" width="29.4737" height="4.60526" fill="#C64432"/>
<rect y="2.76343" width="2.76316" height="1.84211" fill="#C64432"/>
<rect x="34.0789" y="2.76343" width="2.76316" height="1.84211" fill="#C64432"/>
<rect y="8.29041" width="2.76316" height="1.84211" fill="#C64432"/>
<rect x="34.0789" y="8.29041" width="2.76316" height="1.84211" fill="#C64432"/>
<rect y="13.8154" width="2.76316" height="1.84211" fill="#C64432"/>
<rect x="34.0789" y="13.8154" width="2.76316" height="1.84211" fill="#C64432"/>
<rect y="19.3423" width="2.76316" height="1.84211" fill="#C64432"/>
<rect x="34.0789" y="19.3423" width="2.76316" height="1.84211" fill="#C64432"/>
<rect y="24.8691" width="2.76316" height="1.84211" fill="#C64432"/>
<rect x="34.0789" y="24.8691" width="2.76316" height="1.84211" fill="#C64432"/>
<rect width="2.76316" height="1.84211" fill="#C64432"/>
<rect x="34.0789" width="2.76316" height="1.84211" fill="#C64432"/>
<rect y="5.52698" width="2.76316" height="1.84211" fill="#C64432"/>
<rect x="34.0789" y="5.52698" width="2.76316" height="1.84211" fill="#C64432"/>
<rect y="11.052" width="2.76316" height="1.84211" fill="#C64432"/>
<rect x="34.0789" y="11.052" width="2.76316" height="1.84211" fill="#C64432"/>
<rect y="16.5789" width="2.76316" height="1.84211" fill="#C64432"/>
<rect x="34.0789" y="16.5789" width="2.76316" height="1.84211" fill="#C64432"/>
<rect y="22.1057" width="2.76316" height="1.84211" fill="#C64432"/>
<rect x="34.0789" y="22.1057" width="2.76316" height="1.84211" fill="#C64432"/>
<rect y="27.6309" width="2.76316" height="1.84211" fill="#C64432"/>
<rect x="34.0789" y="27.6309" width="2.76316" height="1.84211" fill="#C64432"/>
<rect y="30.3943" width="2.76316" height="1.84211" fill="#C64432"/>
<rect x="34.0789" y="30.3943" width="2.76316" height="1.84211" fill="#C64432"/>
<rect y="33.1577" width="2.76316" height="1.84211" fill="#C64432"/>
<rect x="34.0789" y="33.1577" width="2.76316" height="1.84211" fill="#C64432"/>
<path fillRule="evenodd" clipRule="evenodd" d="M3.68469 5.52649H33.1584V29.4739H3.68469V5.52649ZM22.928 19.6342H19.5036V16.9073C19.5036 16.6255 19.4613 16.4493 19.3767 16.3789C19.2922 16.2943 19.116 16.252 18.8483 16.252H15.4239C15.1561 16.252 14.98 16.2943 14.8954 16.3789C14.8109 16.4493 14.7686 16.6255 14.7686 16.9073V26.2505C14.7686 26.5324 14.8109 26.7156 14.8954 26.8001C14.98 26.8706 15.1561 26.9058 15.4239 26.9058H18.8483C19.116 26.9058 19.2922 26.8706 19.3767 26.8001C19.4613 26.7156 19.5036 26.5324 19.5036 26.2505V23.5448H22.928V26.483C22.928 27.5963 22.3714 28.153 21.2581 28.153H13.0141C11.9008 28.153 11.3442 27.5963 11.3442 26.483V16.6748C11.3442 15.5615 11.9008 15.0049 13.0141 15.0049H21.2581C22.3714 15.0049 22.928 15.5615 22.928 16.6748V19.6342ZM26.6376 18.0414C27.0083 17.8233 27.4662 17.9542 27.6624 18.303C27.7496 18.412 27.7714 18.5429 27.7714 18.6737L27.7496 21.5518V24.4735C27.7496 24.8878 27.4225 25.2149 27.0083 25.2149C26.8556 25.2149 26.703 25.1713 26.594 25.084L24.152 23.6668C24.1411 23.6668 24.1356 23.6613 24.1301 23.6559C24.1247 23.6504 24.1192 23.645 24.1083 23.645L23.5196 23.2961V19.8511L24.152 19.4804L26.6376 18.0414ZM13.6429 14.3878C15.5835 14.3878 17.1534 12.8179 17.1534 10.8773C17.1534 8.93679 15.5835 7.3669 13.6429 7.3669C11.7024 7.3669 10.1325 8.93679 10.1325 10.8773C10.1107 12.8179 11.7024 14.3878 13.6429 14.3878ZM13.6429 9.43828C14.4497 9.43828 15.082 10.0924 15.082 10.8773C15.082 11.6841 14.4279 12.3164 13.6429 12.3164C12.858 12.3164 12.2039 11.6623 12.2039 10.8773C12.1821 10.0706 12.8362 9.43828 13.6429 9.43828ZM24.5265 10.8775C24.5265 12.818 22.9566 14.3879 21.0161 14.3879C19.0755 14.3879 17.5057 12.818 17.5057 10.8775C17.5057 8.93694 19.0755 7.36705 21.0161 7.36705C22.9566 7.36705 24.5265 8.93694 24.5265 10.8775ZM22.4552 10.8775C22.4552 10.0925 21.8228 9.43843 21.0161 9.43843C20.2094 9.43843 19.577 10.0707 19.577 10.8775C19.577 11.6624 20.2312 12.3165 21.0161 12.3165C21.801 12.3165 22.4552 11.6842 22.4552 10.8775Z" fill="#C64432"/>
</svg>
